<svg width="1440" height="352" viewBox="0 0 1440 352" fill="none" xmlns="http://www.w3.org/2000/svg">
<g clip-path="url(#clip0)">
<path d="M0.0262887 146.972L60.7556 129.907C121.499 112.477 242.936 78.8955 363.435 68.7928C483.913 59.2382 603.452 73.1622 721.981 112.392C840.525 151.256 958.094 214.513 1077.81 224.143C1197.5 234.139 1319.38 189.595 1380.29 167.962L1441.21 145.964L1433.04 350.603L1373.09 348.209C1313.14 345.814 1193.23 341.026 1073.33 336.238C953.424 331.449 833.52 326.661 713.616 321.873C593.711 317.084 473.807 312.296 353.902 307.507C233.998 302.719 114.093 297.931 54.1412 295.537L-5.81101 293.142L0.0262887 146.972Z" fill="#292D76"/>
</g>
<path d="M0 192L60 170.7C120 149 240 107 360 90.7C480 75 600 85 720 122.7C840 160 960 224 1080 229.3C1200 235 1320 181 1380 154.7L1440 128V352H1380C1320 352 1200 352 1080 352C960 352 840 352 720 352C600 352 480 352 360 352C240 352 120 352 60 352H0V192Z" fill="white"/>
<defs>
<clipPath id="clip0">
<rect width="1440" height="292.574" fill="white" transform="translate(5.86359 0.801392) rotate(2.28689)"/>
</clipPath>
</defs>
</svg>
